<?xml version="1.0" encoding="UTF-8" standalone="no"?><!DOCTYPE svg PUBLIC "-//W3C//DTD SVG 1.1//EN" "http://www.w3.org/Graphics/SVG/1.1/DTD/svg11.dtd"><svg width="100%" height="100%" viewBox="0 0 334 44" version="1.1" xmlns="http://www.w3.org/2000/svg" xmlns:xlink="http://www.w3.org/1999/xlink" xml:space="preserve" xmlns:serif="http://www.serif.com/" style="fill-rule:evenodd;clip-rule:evenodd;stroke-linejoin:round;stroke-miterlimit:2;"><rect id="Banner" x="0" y="0" width="333.749" height="43.395" style="fill:none;"/><path d="M10.018,36.255c-0.097,0.001 0.069,-0.209 0.115,-0.348c0.035,-0.107 -0.072,-0.412 -0.118,-0.503c-0.074,-0.146 -0.823,-0.994 -0.584,-1.235c0.127,-0.128 1.142,0.368 1.355,0.421c0.281,0.069 1.087,-0.154 1.276,0.034c0.082,0.081 0.002,0.57 0.003,0.696c0.002,0.668 0.12,1.365 0.123,2.01c0,0.188 -0.117,0.813 0.157,0.812c0.433,-0.001 0.269,-0.555 0.268,-0.813c-0.002,-0.537 0.025,-1.246 -0.084,-1.779c-0.039,-0.193 -0.184,-0.679 -0.08,-0.889c0.043,-0.088 0.765,-0.129 0.85,-0.158c0.463,-0.156 1.294,-0.129 1.739,-0.354c0.901,-0.454 1.956,-1.136 2.352,-2.135c0.459,-1.159 0.431,-2.277 0.22,-3.52c-0.096,-0.565 -0.1,-1.311 -0.355,-1.816c-0.048,-0.096 -0.52,-0.054 -0.619,-0.153c-0.646,-0.641 -1.356,-2.718 -0.864,-3.71c0.186,-0.374 0.632,-0.364 0.81,-0.544c0.083,-0.083 -0.041,-0.735 -0.041,-0.851c-0.002,-0.443 -0.08,-0.839 -0.082,-1.314c-0.001,-0.145 0.149,-0.358 0.114,-0.426c-0.107,-0.213 -0.495,-0.501 -0.233,-0.502c0,0.114 -0.204,-0.288 -0.234,-0.347c-0.107,-0.213 -0.138,-0.484 -0.35,-0.695c-0.493,-0.49 -1.099,-0.857 -1.706,-1.309c-0.642,-0.478 0.119,-0.988 0.342,-1.664c0.289,-0.877 -0.184,-2.212 -0.397,-3.054c-0.258,-1.015 -0.875,-1.92 -1.826,-2.391c-0.152,-0.076 -0.575,-0.663 -0.39,-0.85c0.876,-0.883 0.567,-1.37 0.919,-2.44c0.188,-0.568 0.906,-0.989 0.768,-1.665c-0.171,-0.839 -1.211,-2.506 -2.287,-1.423c-0.226,0.228 -0.467,1.07 -0.265,1.47c0.123,0.245 0.582,0.578 0.582,0.578c0,0 -0.455,0.568 -0.616,0.892c-0.135,0.274 -0.222,0.643 -0.345,0.891c-0.081,0.164 0.081,0.461 -0.036,0.58c-0.074,0.074 -0.198,-0.081 -0.272,-0.154c-0.342,-0.34 0.543,-0.792 -0.042,-1.082c-0.647,-0.321 -1.632,-0.998 -2.477,-0.572c-0.116,0.059 -0.405,-0.058 -0.503,0.041c-0.231,0.233 -0.354,1.172 -0.652,1.471c-0.129,0.13 -1.044,0.005 -0.772,0.545c0.2,0.396 0.812,-0.003 1.045,0.228c0.19,0.189 -0.229,0.851 -0.228,1.084c0,0.093 0.543,0.346 0.35,0.54c-0.044,0.044 -0.323,0.008 -0.387,0.04c-0.402,0.203 -0.923,0.578 -1.156,1.048c-0.6,1.209 -1.195,2.415 -1.612,3.68c-0.258,0.786 0.016,1.733 -0.145,2.553c-0.117,0.591 -0.352,1.876 -0.069,2.436c0.246,0.489 -0.369,1.256 -0.226,1.819c0.05,0.198 0.061,0.505 0.157,0.695c0.051,0.1 0.25,0.035 0.31,0.154c0.145,0.288 -0.015,1.025 0.198,1.237c0.254,0.252 0.372,0.552 0.506,1.081c0.416,1.638 0.184,3.45 0.521,5.103c0.16,0.787 0.243,2.027 0.087,2.823c-0.053,0.269 0.026,0.595 -0.152,0.774c-0.4,0.403 -2.374,0.977 -1.888,1.94c0.123,0.245 0.627,0.496 0.891,0.461c0.803,-0.106 2.644,-0.564 2.644,-0.564c0,0 -0.024,-1.276 -0.022,-1.727c0.003,-0.664 0.304,-1.601 0.301,-2.283c-0.001,-0.399 0.035,-1.199 0.035,-1.199c0,0 0.034,0.647 0.08,0.967c0.094,0.641 0.24,1.128 0.509,1.661c0.303,0.6 -0.538,1.737 -0.146,2.515c0.273,0.541 1.271,0.844 1.899,0.998c0.124,0.031 0.812,0.031 0.812,0.036" style="fill:#231f20;"/><path d="M32.472,10.416c-0.17,-0.594 -0.229,-1.101 -0.378,-1.696c-0.106,-0.422 -0.451,-0.52 -0.624,-0.865c-0.068,-0.136 -0.036,-0.395 -0.06,-0.544c-0.067,-0.396 -0.184,-0.776 -0.262,-1.166c-0.064,-0.321 0.096,-0.674 0.04,-1.006c-0.03,-0.185 -0.163,-0.425 -0.261,-0.524c-0.087,-0.087 -0.259,-0.05 -0.302,-0.181c-0.099,-0.296 0.311,-0.369 0.382,-0.583c0.122,-0.365 -0.482,-0.971 0.141,-1.127c0.425,-0.106 0.532,0.399 0.604,0.684c0.017,0.068 0.02,0.295 0.1,0.322c0.123,0.041 0.536,0.151 0.483,0.362c-0.044,0.177 -0.225,0.273 -0.282,0.443c-0.062,0.186 0.034,0.499 0.061,0.684c0.067,0.469 0.238,1.012 0.503,1.408c0.135,0.203 0.31,0.343 0.362,0.604c0.115,0.577 -0.121,1.218 -0.121,1.791c0,0.625 0.235,1.177 0.282,1.79c0,0.003 0,0.005 0.001,0.008c0.082,0.064 0.144,0.129 0.177,0.194c0.515,1.031 0.193,2.057 0.856,3.052c0.437,0.655 1.002,0.883 1.607,1.285c0.37,0.248 0.286,0.78 0.642,1.018c0.286,0.19 0.974,0.341 1.124,0.642c0.209,0.418 0.385,1.027 0.643,1.285c0.153,0.153 0.006,0.702 0.161,0.857c0.262,0.263 -0.358,0.981 -0.215,1.124c0.231,0.231 0.775,1.146 0.911,1.553c0.251,0.753 -0.992,1.971 -0.375,2.999c0.29,0.483 0.52,1.104 0.857,1.552c0.301,0.403 0.96,0.158 1.231,0.429c0.194,0.193 0.079,1.077 0.268,1.392c0.492,0.821 1.211,1.738 1.445,2.677c0.21,0.837 -0.877,3.03 -1.552,3.48c-0.901,0.601 -1.784,1.315 -2.892,1.5c-0.579,0.096 -1.188,0.01 -1.767,0.107c-0.489,0.081 -1.357,0.178 -1.82,-0.054c-0.489,-0.245 -0.868,-0.675 -1.339,-0.91c-0.224,-0.112 -0.428,0.25 -0.642,0.321c-0.643,0.214 -2.587,-0.247 -2.891,-0.857c-0.217,-0.432 0.749,-1.245 0.749,-1.767c0,-0.315 -0.34,-0.825 -0.428,-1.177c-0.092,-0.368 0.173,-1.337 0.268,-1.714c0.317,-1.268 -0.467,-2.715 -1.339,-3.587c-0.181,-0.181 -0.22,-0.44 -0.321,-0.643c-0.027,-0.054 0.059,-0.428 -0.054,-0.428c-0.146,0 -0.417,1.648 -0.589,1.82c-0.488,0.489 -0.701,1.344 -1.071,1.714c-0.131,0.131 0.169,0.474 0.054,0.589c-0.587,0.586 -0.921,1.626 -1.339,2.463c-0.067,0.134 0.508,0.429 0.321,0.803c-0.269,0.539 -0.543,1.105 -0.696,1.713c-0.211,0.847 0.461,0.653 0.696,1.125c0.078,0.154 0.032,0.383 0.108,0.535c0.054,0.109 0.308,0.656 0.16,0.803c-0.248,0.249 -0.584,-0.107 -0.91,-0.107c-0.544,0 -2.2,-0.407 -2.57,-0.926c0.06,-0.177 0.155,-0.449 0.214,-0.627c0.11,-0.331 0.533,-1.504 0.375,-1.82c-0.401,-0.801 0.184,-1.599 0.589,-2.41c0.556,-1.113 0.763,-2.416 1.231,-3.587c0.588,-1.47 -0.148,-3.435 0.161,-4.979c0.339,-1.697 1.729,-2.724 2.249,-4.284c0.142,-0.428 0.289,-0.866 0.428,-1.285c0.081,-0.242 -0.068,-0.896 0.107,-1.071c0.188,-0.188 0.345,-0.69 0.482,-0.964c0.229,-0.458 0.99,-1.043 1.339,-1.392c0.262,-0.262 -0.174,-1.258 0,-1.606c0.276,-0.552 1.12,-1.93 1.874,-1.553c0.172,0.086 0.456,0.146 0.814,0.312Zm-9.882,25.237c0.006,0.01 0.012,0.019 0.019,0.029c-0.024,0.069 -0.042,0.125 -0.05,0.154l-0.004,0.023c-0.002,0.002 -0.001,-0.006 0.004,-0.023l0.031,-0.183c-0.086,-0.14 -0.077,-0.287 0.072,-0.437l-0.072,0.437Z" style="fill:#231f20;"/><path id="Jonas" d="M52.813,14.92l0.724,-1.192c-0.002,-0.001 -0.004,-0.002 -0.005,-0.003c-0.014,-0.014 0.035,-0.08 0.042,-0.093c0.043,-0.086 0.114,-0.175 0.18,-0.262l0.159,-0.261c0.111,-0.253 0.147,-0.549 0.272,-0.8c0.061,-0.121 0.259,-0.161 0.345,-0.216l0.058,-0.096l0.288,-0.641c-0.042,-0.043 -0.193,-0.013 -0.251,-0.042c-0.091,-0.046 -0.072,-0.207 -0.126,-0.26c-0.068,-0.069 -0.259,-0.1 -0.301,-0.184c-0.026,-0.052 -0.077,-0.087 -0.101,-0.134c-0.023,-0.046 -0.002,-0.113 -0.025,-0.159c-0.015,-0.03 0.023,-0.128 0,-0.151c-0.052,-0.053 -0.187,0.036 -0.226,-0.042c-0.04,-0.079 -0.05,-0.337 -0.009,-0.419c0.011,-0.021 0.026,-0.158 0.017,-0.176c-0.029,-0.058 -0.111,-0.019 -0.151,-0.059c-0.023,-0.023 -0.016,-0.121 -0.058,-0.142c-0.033,-0.016 -0.104,0.005 -0.126,-0.017c-0.076,-0.076 -0.061,-0.212 -0.084,-0.301c-0.073,-0.292 -0.073,-0.806 0.134,-1.014c0.067,-0.067 -0.009,-0.35 0.034,-0.436c0.039,-0.078 0.166,-0.098 0.226,-0.159c0.1,-0.1 0.176,-0.247 0.302,-0.31c0.096,-0.048 0.226,-0.065 0.326,-0.125c0.22,-0.132 0.718,-0.408 0.93,-0.302c0.026,0.013 0.091,-0.026 0.101,-0.017c0.039,0.04 -0.028,0.083 0.05,0.109c0.088,0.03 0.204,-0.112 0.26,-0.084c0.106,0.054 0.181,0.132 0.268,0.218c0.015,0.015 0.088,-0.002 0.109,0.009c0.022,0.011 0.014,0.039 0.025,0.05c0.037,0.037 0.12,0.019 0.159,0.059c0.09,0.089 0.22,0.152 0.31,0.242c0.017,0.017 -0.03,0.063 -0.008,0.084c0.042,0.043 0.04,0.039 0.067,0.092c0.013,0.028 0.07,0.016 0.083,0.042c0.046,0.092 0.126,0.165 0.126,0.26l0.736,-1.137l0.249,-0.38c-0.042,0 0.048,-0.027 0.069,-0.048c0.053,-0.054 0.118,-0.126 0.151,-0.193c0.122,-0.245 0.309,-0.454 0.475,-0.675c0.361,-0.481 0.966,-0.761 1.468,-1.047c0.1,-0.058 0.27,-0.105 0.344,-0.179c0.017,-0.017 0.06,-0.045 0.076,-0.076c0.005,-0.011 -0.009,-0.034 0.007,-0.034c0,-0.027 -0.054,-0.013 -0.076,-0.028c-0.045,-0.03 -0.109,-0.081 -0.145,-0.117c-0.089,-0.089 -0.132,-0.202 -0.172,-0.324c-0.051,-0.152 -0.193,-0.229 -0.152,-0.434c0.121,-0.6 0.803,-0.989 1.399,-0.84c0.157,0.039 0.303,0.048 0.441,0.151c0.217,0.163 0.42,0.379 0.489,0.655c0.028,0.113 0.011,0.24 0.048,0.351c0.058,0.175 0.095,0.377 0.048,0.565c-0.092,0.37 -0.399,0.77 -0.723,0.964c-0.181,0.109 -0.419,0.205 -0.565,0.352c-0.059,0.059 0.026,0.159 -0.096,0.22c-0.065,0.032 -0.169,-0.029 -0.214,-0.007c-0.074,0.037 -0.181,0.146 -0.241,0.207c-0.056,0.056 -0.192,0.095 -0.227,0.165c-0.003,0.005 -0.036,0.033 -0.028,0.041c0.018,0.018 0.098,0.056 0.117,0.074c-0.004,0.002 -0.007,0.005 -0.007,0.009c0.012,0 0.012,-0.004 0.007,-0.009c0.03,-0.018 0.164,0.002 0.186,0.009c0.128,0.043 0.094,0.236 0.145,0.338c0.015,0.031 0.029,0.116 -0.014,0.137c-0.177,0.089 -0.343,-0.024 -0.434,-0.206c-0.022,-0.044 0.033,-0.181 0,-0.214c-0.034,-0.034 -0.076,-0.055 -0.103,-0.083c-0.017,-0.017 0.037,0.103 0.041,0.118c0.017,0.066 0.06,0.201 0,0.261c-0.095,0.095 -0.291,0.137 -0.413,0.076c-0.029,-0.014 -0.104,-0.025 -0.104,-0.055c-0.018,-0.018 -0.058,0.066 -0.068,0.083c-0.059,0.088 -0.065,0.229 -0.09,0.33c-0.004,0.015 -0.006,0.087 -0.006,0.108c-0.005,0.001 -0.006,0.002 -0.001,0.002c0,0.007 0,0.005 0.001,-0.002c0.011,-0.003 0.043,-0.008 0.054,-0.004c0.035,0.011 0.115,0.042 0.159,0.02c0.027,-0.013 0.04,-0.065 0.075,-0.082c0.095,-0.048 0.29,0.091 0.317,0.172c0.016,0.048 0.09,0.083 0.069,0.144c-0.049,0.148 -0.302,0.187 -0.427,0.124c-0.137,-0.068 -0.087,-0.227 -0.275,-0.227c-0.055,0 -0.02,0.233 -0.042,0.276c-0.016,0.032 -0.126,0.198 -0.13,0.206l-0.001,0c0,-0.043 -0.177,-0.036 -0.22,-0.069c-0.148,-0.111 -0.403,-0.13 -0.592,-0.13c-0.054,0 -0.145,-0.018 -0.193,0.006c-0.434,0.217 -0.701,0.782 -0.91,1.199c-0.074,0.149 -0.18,0.296 -0.241,0.448c-0.013,0.033 -0.062,0.15 -0.072,0.187c0,0 0,0 0,0.001c-0.003,0.011 -0.001,0.014 0.007,0.003c-0.004,-0.001 -0.006,-0.003 -0.007,-0.003l0,-0.001c0.001,-0.001 0.005,-0.001 0.01,-0.001l-0.003,0.005c0.012,0.004 0.035,0.01 0.038,0.015c0.029,0.058 0.104,0.099 0.124,0.159c0.017,0.052 -0.032,0.136 -0.056,0.173c-0.008,0.006 -0.013,0.012 -0.013,0.02c0,0 0.005,-0.008 0.013,-0.02c0.02,-0.012 0.056,-0.016 0.07,-0.008c0.023,0.014 0.021,0.053 0.048,0.069c0.079,0.048 0.162,0.09 0.241,0.138c0.047,0.028 0.1,0.039 0.145,0.069c0.04,0.027 0.058,0.085 0.096,0.11c0.056,0.037 0.129,0.046 0.172,0.089c0.055,0.055 0.22,-0.014 0.276,0.042c0.032,0.032 0.161,-0.031 0.193,-0.042c0.218,-0.072 0.464,0.011 0.682,-0.062c0.088,-0.029 0.189,0.022 0.268,0.042c0.129,0.032 0.269,0.058 0.393,0.089c0.148,0.037 0.291,0.222 0.413,0.303c0.105,0.071 0.287,0.032 0.379,0.124c0.103,0.103 0.191,0.236 0.269,0.352c0.033,0.049 0.058,0.123 0.11,0.158c0.33,0.22 0.623,0.395 0.84,0.758c0.079,0.131 0.085,0.351 0.048,0.496c-0.021,0.085 0.036,0.174 0.014,0.262c-0.048,0.194 -0.231,0.549 -0.441,0.619c-0.12,0.041 -0.349,0.086 -0.482,0.042c-0.037,-0.013 -0.077,-0.042 -0.117,-0.042c0,0.117 0.049,0.258 0.082,0.383c0.053,0.201 0.084,0.416 0.123,0.621c0.039,0.209 0.028,0.424 0.048,0.635c0.029,0.307 0.071,0.616 0.109,0.921c0.034,0.275 -0.003,0.557 0.013,0.833c0.022,0.359 0.014,0.707 0.014,1.065c0,0.31 0.075,0.681 0.014,0.989c-0.014,0.067 -0.055,0.18 -0.055,0.232c-0.061,0 -0.032,0.361 -0.016,0.47c0.016,0.115 -0.035,0.272 0.016,0.373c0.019,0.037 0.131,0.066 0.162,0.097c0.124,0.124 0.085,0.572 0.065,0.729c-0.042,0.332 0.031,0.657 -0.016,0.988c-0.059,0.411 -0.261,0.766 -0.357,1.15c-0.052,0.209 0.043,0.453 0,0.665c-0.144,0.722 -0.26,1.43 -0.486,2.106c-0.091,0.274 -0.162,0.561 -0.162,0.858c0,0.037 -0.015,0.502 -0.032,0.502c-0.051,0 0.053,0.087 0.081,0.13c0.035,0.053 0.071,0.149 0.097,0.21c0.103,0.239 0.136,0.537 0.178,0.794c0.047,0.28 -0.097,0.568 -0.032,0.826c0.127,0.51 0.336,1.169 0.227,1.718c-0.086,0.428 -0.156,0.877 -0.243,1.312c-0.036,0.18 0.044,0.389 0,0.567c-0.058,0.23 -0.122,0.511 -0.195,0.729c-0.008,0.024 -0.055,0.108 -0.093,0.151c0.028,0.071 0.117,0.187 0.126,0.205c0.089,0.179 0.052,0.396 0.129,0.551c0.107,0.213 -0.195,0.488 -0.275,0.648c-0.151,0.302 0.305,0.747 0.016,1.037c-0.042,0.042 -0.164,-0.064 -0.227,-0.033c-0.171,0.086 -0.283,0.083 -0.469,0.13c-0.111,0.027 -0.207,0.116 -0.324,0.146c-0.224,0.056 -0.472,0.024 -0.697,0.081c-0.151,0.037 -0.447,-0.002 -0.599,-0.033c-0.426,-0.085 -0.95,-0.113 -1.377,-0.113c-0.138,0 -0.024,-0.212 0,-0.259c0.06,-0.12 0.379,-0.389 0.502,-0.438c0.349,-0.139 0.904,-0.472 1.118,-0.794c0.062,-0.093 0.015,-0.161 0.097,-0.243c-0.285,0 -0.178,-0.377 -0.178,-0.567c0,-0.557 0.379,-1.115 0.324,-1.668c-0.046,-0.452 0.057,-0.93 -0.033,-1.377c-0.032,-0.163 -0.131,-0.315 -0.162,-0.47c-0.061,-0.304 0.132,-0.597 -0.129,-0.858c-0.039,-0.039 0.224,-0.44 0.162,-0.503c-0.276,-0.275 -0.26,-0.643 -0.26,-1.053c0,-0.215 0.124,-0.469 0.081,-0.68c-0.081,-0.406 -0.129,-0.808 -0.226,-1.199c-0.053,-0.212 -0.042,-0.39 -0.13,-0.567c-0.013,-0.025 -0.016,-0.18 -0.016,-0.234l0,-0.01l0,0.018c0,-0.019 -0.067,0.255 -0.081,0.324c-0.044,0.218 -0.13,0.427 -0.13,0.647c0,0.505 -0.047,1.303 -0.324,1.718c-0.067,0.1 -0.049,0.292 -0.129,0.372c-0.125,0.125 0.032,0.292 0.032,0.47c0,0.285 -0.089,0.573 -0.049,0.859c0.025,0.17 0.058,0.358 0.033,0.534c-0.066,0.458 -0.239,1.072 -0.146,1.539c0.063,0.313 0.179,0.725 0.113,1.053c-0.066,0.333 -0.194,0.657 -0.194,0.988c0,0.132 0.116,0.432 0.065,0.535c-0.172,0.344 -0.259,0.654 -0.259,1.053c0,-0.042 -0.132,0.085 -0.162,0.097c-0.108,0.043 -0.242,0.081 -0.357,0.081l-1.296,0c-0.41,0 -0.897,-0.183 -1.328,-0.097c-0.227,0.045 -0.573,0.108 -0.81,0.048c-0.165,-0.041 -0.466,-0.054 -0.616,-0.129c-0.148,-0.074 -0.162,-0.195 -0.372,-0.195l0.089,-0.065c-0.367,0 0.167,-0.428 0.242,-0.465c0.519,-0.26 1.103,-0.37 1.577,-0.607c0.149,-0.074 0.524,-0.099 0.627,-0.202c0.302,-0.302 0.002,-0.571 0.182,-0.93c0.044,-0.088 -0.045,-0.299 0.02,-0.364c0.106,-0.106 0.113,-0.355 0.223,-0.465c0.011,-0.012 0.045,-0.182 0,-0.182c-0.06,0 -0.111,0.303 -0.142,0.364c-0.162,0.324 -0.424,0.714 -0.748,0.93c-0.531,0.354 -1.387,0.121 -2.022,0.121c-0.122,0 -0.652,-0.136 -0.748,-0.04c-0.052,0.052 -0.028,0.197 -0.061,0.262c-0.033,0.067 -0.169,-0.005 -0.222,0.102c-0.088,0.175 -0.141,0.422 -0.202,0.606c-0.207,0.619 -0.342,1.365 -0.506,2.022c-0.028,0.115 -0.007,0.318 -0.06,0.425c-0.082,0.163 -0.016,0.379 -0.122,0.485c-0.121,0.121 -0.495,0.041 -0.424,-0.101c0.326,-0.652 0.453,-1.437 0.606,-2.204c0.062,-0.307 0.128,-0.682 0.243,-0.971c0.015,-0.038 0.103,-0.321 0.081,-0.343c-0.031,-0.031 -0.115,0.034 -0.142,-0.021c-0.072,-0.144 0.139,-0.528 0.061,-0.606c-0.074,-0.074 -0.382,-0.029 -0.485,-0.081c-0.365,-0.182 -0.744,-0.281 -1.113,-0.465c-0.811,-0.406 -1.051,-1.544 -1.051,-2.426c0,-0.207 -0.073,-0.45 -0.04,-0.647c0.06,-0.364 0.197,-0.686 0.242,-1.052c0.065,-0.514 0.283,-0.94 0.483,-1.385l-0.096,-0.497l-0.151,-3.668l1.235,-2.032c-0.202,-0.038 -0.407,-0.064 -0.605,-0.104c-0.158,-0.032 -0.331,-0.048 -0.491,-0.062c-0.004,-0.001 -0.007,-0.001 -0.011,-0.001c-0.09,0.061 -0.178,0.113 -0.223,0.124c-0.207,0.052 -0.372,-0.09 -0.53,-0.195c-0.066,-0.044 -0.154,-0.047 -0.223,-0.093c-0.149,-0.099 -0.26,-0.424 -0.26,-0.594c0,-0.084 -0.022,-0.232 -0.009,-0.232c0,0 -0.558,-0.29 -0.501,-0.377c0.058,-0.086 0.716,0.243 0.716,0.243c0,-0.108 0.086,-0.188 0.176,-0.261c0.191,-0.153 0.39,-0.288 0.614,-0.391c0.042,-0.019 0.345,-0.122 0.345,-0.169c0.514,-0.514 1.408,-0.701 1.972,-1.266c0.25,-0.25 0.546,-0.466 0.836,-0.66c0.07,-0.046 0.315,-0.201 0.315,-0.161c0,-0.116 -0.176,-0.285 -0.115,-0.406c0.079,-0.158 0.353,0.061 0.453,-0.039c0.027,-0.027 0.041,-0.063 0.084,-0.084c0.031,-0.016 0.062,0.019 0.1,0c0.069,-0.034 0.026,-0.106 0.053,-0.161c0.036,-0.072 0.149,-0.082 0.177,-0.138c0.023,-0.047 0.029,-0.135 0.046,-0.184c0.052,-0.156 0.287,-0.279 0.477,-0.38Zm7.577,18.449c0,0.008 0.003,0.019 0.008,0.03c-0.014,0.016 -0.027,0.027 -0.036,0.027c-0.024,0 0.004,-0.031 0.028,-0.057c-0.002,-0.015 0.004,-0.024 0.02,-0.024c-0.005,0.006 -0.012,0.015 -0.02,0.024Zm-12.061,-10.628c0.052,0.036 0.108,0.067 0.158,0.1c0.303,0.202 0.613,0.301 0.954,0.415c0.138,0.046 0.295,0.099 0.435,0.159c0.013,0.005 0.039,0.017 0.069,0.03c-0.132,0.232 -0.368,0.417 -0.482,0.645c-0.043,0.085 -0.009,0.176 -0.061,0.262c-0.272,0.454 -0.436,0.908 -0.6,1.377l-0.371,0.245l-0.102,-3.233Zm1.441,-2.148l0.003,0.001c0.272,0.081 0.546,0.162 0.829,0.193c0.203,0.023 0.406,0.091 0.608,0.125c-0.018,0.122 -0.029,0.228 -0.029,0.266c0,0.403 -0.252,1.105 -0.626,1.355c-0.085,0.056 -0.463,0.346 -0.587,0.222c-0.02,-0.02 -0.017,0.005 -0.008,0.044c-0.209,0 -0.771,-0.137 -0.858,-0.166c-0.167,-0.055 -0.418,-0.069 -0.601,-0.069c-0.029,0 -0.082,0.003 -0.135,0.006l1.404,-1.977Zm1.634,-0.193c-0.209,-0.035 -0.432,-0.043 -0.643,-0.069c-0.034,-0.004 -0.07,-0.008 -0.106,-0.012l0.658,-1.023l0.025,-0.013c0.04,0.046 0.173,0.073 0.191,0.13c0.018,0.051 -0.009,0.155 -0.025,0.201c-0.013,0.04 0.009,0.092 0,0.134c-0.044,0.224 -0.099,0.421 -0.1,0.652Zm-1.383,-0.16l0.109,-0.154l0.392,0.22c-0.165,-0.016 -0.337,-0.032 -0.501,-0.066Zm-1.381,-0.283c-0.002,0.007 -0.003,0.015 -0.003,0.022c-0.015,0.016 -0.02,-0.018 -0.023,-0.015c-0.025,0.025 -0.069,0.1 -0.069,0.153c-0.015,0 0.029,0.001 0.038,0.004c0.006,0.002 -0.005,0.015 -0.027,0.036l0.007,0.001c0.328,0.055 0.677,0.046 1.001,0.11l0.028,-0.046c-0.283,-0.081 -0.564,-0.165 -0.849,-0.237c-0.035,-0.008 -0.069,-0.018 -0.103,-0.028Zm1.996,-1.454c-0.088,0.031 -0.175,0.068 -0.261,0.105c-0.047,0.02 -0.086,0.059 -0.134,0.081c-0.24,0.109 -0.486,0.21 -0.722,0.328c-0.076,0.038 -0.155,0.073 -0.229,0.115c-0.021,0.011 -0.057,0.033 -0.057,0.053c0,0.011 -0.045,0.042 -0.065,0.057c-0.052,0.039 -0.114,0.099 -0.164,0.149c-0.037,0.037 -0.079,0.061 -0.107,0.103c-0.029,0.043 -0.031,0.084 -0.046,0.13c-0.015,0.045 -0.044,0.09 -0.069,0.134c0.007,0.002 0.013,0.005 0.016,0.006c0.073,0.029 0.142,0.074 0.221,0.097c0.21,0.06 0.437,0.157 0.637,0.256l0.98,-1.614Z" style="fill:#231f20;"/><g transform="matrix(0.24,0,0,0.24,-145.102,-414.42)"><g transform="matrix(83.3333,0,0,83.3333,968.219,1848.57)"><path d="M0.09,0l0,-0.754l0.114,0c0.05,0 0.09,0.004 0.12,0.012c0.03,0.008 0.056,0.021 0.077,0.039c0.021,0.02 0.038,0.043 0.05,0.072c0.013,0.029 0.019,0.058 0.019,0.088c0,0.054 -0.02,0.1 -0.062,0.137c0.04,0.014 0.072,0.038 0.095,0.072c0.023,0.034 0.035,0.073 0.035,0.118c0,0.059 -0.021,0.109 -0.062,0.15c-0.025,0.025 -0.054,0.042 -0.085,0.052c-0.034,0.009 -0.077,0.014 -0.128,0.014l-0.173,0Zm0.114,-0.43l0.036,0c0.042,0 0.073,-0.01 0.093,-0.028c0.019,-0.019 0.029,-0.047 0.029,-0.083c0,-0.035 -0.01,-0.062 -0.03,-0.081c-0.02,-0.018 -0.049,-0.027 -0.088,-0.027l-0.04,0l0,0.219Zm0,0.323l0.07,0c0.052,0 0.09,-0.01 0.114,-0.03c0.025,-0.022 0.038,-0.05 0.038,-0.083c0,-0.033 -0.012,-0.06 -0.037,-0.082c-0.024,-0.022 -0.066,-0.033 -0.127,-0.033l-0.058,0l0,0.228Z" style="fill-rule:nonzero;"/></g><g transform="matrix(83.3333,0,0,83.3333,1016.56,1848.57)"><path d="M0.533,-0.183l-0.323,0l-0.084,0.183l-0.122,0l0.373,-0.801l0.36,0.801l-0.125,0l-0.079,-0.183Zm-0.046,-0.107l-0.112,-0.256l-0.117,0.256l0.229,0Z" style="fill-rule:nonzero;"/></g><g transform="matrix(83.3333,0,0,83.3333,1073.36,1848.57)"><path d="M0.128,-0.754l0.209,0.523l0.211,-0.523l0.125,0l-0.339,0.811l-0.33,-0.811l0.124,0Z" style="fill-rule:nonzero;"/></g><g transform="matrix(83.3333,0,0,83.3333,1124.47,1848.57)"><path d="M0.533,-0.183l-0.323,0l-0.084,0.183l-0.122,0l0.373,-0.801l0.36,0.801l-0.125,0l-0.079,-0.183Zm-0.046,-0.107l-0.112,-0.256l-0.117,0.256l0.229,0Z" style="fill-rule:nonzero;"/></g><g transform="matrix(83.3333,0,0,83.3333,1186.2,1848.57)"><path d="M0.346,-0.321l0.233,0.321l-0.139,0l-0.215,-0.309l-0.021,0l0,0.309l-0.114,0l0,-0.754l0.134,0c0.099,0 0.171,0.019 0.215,0.056c0.049,0.042 0.074,0.097 0.074,0.165c0,0.054 -0.016,0.1 -0.046,0.138c-0.031,0.038 -0.071,0.063 -0.121,0.074Zm-0.142,-0.087l0.036,0c0.108,0 0.162,-0.041 0.162,-0.123c0,-0.077 -0.053,-0.116 -0.157,-0.116l-0.041,0l0,0.239Z" style="fill-rule:nonzero;"/></g><g transform="matrix(83.3333,0,0,83.3333,1236.37,1848.57)"><rect x="0.09" y="-0.754" width="0.114" height="0.754" style="fill-rule:nonzero;"/></g><g transform="matrix(83.3333,0,0,83.3333,1260.94,1848.57)"><path d="M0.533,-0.183l-0.323,0l-0.084,0.183l-0.122,0l0.373,-0.801l0.36,0.801l-0.125,0l-0.079,-0.183Zm-0.046,-0.107l-0.112,-0.256l-0.117,0.256l0.229,0Z" style="fill-rule:nonzero;"/></g><g transform="matrix(83.3333,0,0,83.3333,1322.67,1848.57)"><path d="M0.09,0l0,-0.805l0.55,0.575l0,-0.524l0.114,0l0,0.8l-0.55,-0.574l0,0.528l-0.114,0Z" style="fill-rule:nonzero;"/></g><g transform="matrix(83.3333,0,0,83.3333,1418.74,1848.57)"><path d="M0.275,-0.152l0.043,0c0.049,0 0.085,-0.006 0.106,-0.019c0.021,-0.013 0.032,-0.033 0.032,-0.061c0,-0.028 -0.011,-0.048 -0.032,-0.061c-0.021,-0.013 -0.057,-0.019 -0.106,-0.019l-0.043,0l0,0.16Zm0,-0.306l0.036,0c0.061,0 0.092,-0.024 0.092,-0.073c0,-0.049 -0.031,-0.073 -0.092,-0.073l-0.036,0l0,0.146Zm-0.196,-0.296l0.292,0c0.069,0 0.122,0.017 0.158,0.05c0.036,0.033 0.054,0.081 0.054,0.144c0,0.038 -0.007,0.069 -0.02,0.094c-0.014,0.025 -0.035,0.047 -0.063,0.064c0.028,0.005 0.052,0.013 0.072,0.024c0.019,0.011 0.035,0.025 0.048,0.041c0.012,0.016 0.021,0.034 0.026,0.054c0.005,0.02 0.008,0.041 0.008,0.064c0,0.035 -0.006,0.067 -0.018,0.094c-0.013,0.027 -0.03,0.05 -0.052,0.069c-0.023,0.019 -0.05,0.033 -0.082,0.042c-0.032,0.009 -0.068,0.014 -0.108,0.014l-0.315,0l0,-0.754Z" style="fill-rule:nonzero;"/></g><g transform="matrix(83.3333,0,0,83.3333,1475.49,1848.57)"><path d="M0.489,-0.28l-0.088,-0.251l-0.088,0.251l0.176,0Zm0.052,0.149l-0.28,0l-0.045,0.131l-0.209,0l0.287,-0.754l0.214,0l0.287,0.754l-0.209,0l-0.045,-0.131Z" style="fill-rule:nonzero;"/></g><g transform="matrix(83.3333,0,0,83.3333,1542.32,1848.57)"><path d="M0.493,-0.561c-0.021,-0.017 -0.043,-0.03 -0.064,-0.038c-0.021,-0.009 -0.042,-0.013 -0.062,-0.013c-0.025,0 -0.046,0.006 -0.062,0.018c-0.016,0.012 -0.024,0.028 -0.024,0.047c0,0.013 0.004,0.024 0.012,0.033c0.008,0.009 0.019,0.016 0.032,0.023c0.013,0.006 0.027,0.011 0.044,0.016c0.016,0.005 0.032,0.01 0.048,0.015c0.064,0.021 0.111,0.05 0.141,0.085c0.029,0.036 0.044,0.083 0.044,0.14c0,0.039 -0.006,0.074 -0.019,0.105c-0.013,0.031 -0.032,0.058 -0.057,0.08c-0.025,0.023 -0.056,0.04 -0.092,0.052c-0.037,0.013 -0.078,0.019 -0.124,0.019c-0.095,0 -0.184,-0.028 -0.265,-0.085l0.084,-0.158c0.029,0.026 0.058,0.045 0.087,0.058c0.029,0.013 0.057,0.019 0.085,0.019c0.032,0 0.056,-0.007 0.072,-0.022c0.015,-0.015 0.023,-0.031 0.023,-0.05c0,-0.011 -0.002,-0.021 -0.006,-0.03c-0.004,-0.008 -0.011,-0.016 -0.02,-0.023c-0.009,-0.007 -0.021,-0.013 -0.036,-0.019c-0.015,-0.006 -0.034,-0.013 -0.055,-0.02c-0.025,-0.008 -0.05,-0.017 -0.074,-0.027c-0.025,-0.009 -0.046,-0.022 -0.065,-0.038c-0.019,-0.016 -0.035,-0.036 -0.046,-0.061c-0.012,-0.024 -0.018,-0.055 -0.018,-0.092c0,-0.037 0.006,-0.071 0.019,-0.102c0.012,-0.03 0.029,-0.056 0.052,-0.078c0.022,-0.021 0.049,-0.038 0.082,-0.05c0.032,-0.012 0.068,-0.018 0.108,-0.018c0.037,0 0.076,0.005 0.117,0.015c0.041,0.011 0.08,0.026 0.117,0.046l-0.078,0.153Z" style="fill-rule:nonzero;"/></g><g transform="matrix(83.3333,0,0,83.3333,1596.16,1848.57)"><path d="M0.493,-0.561c-0.021,-0.017 -0.043,-0.03 -0.064,-0.038c-0.021,-0.009 -0.042,-0.013 -0.062,-0.013c-0.025,0 -0.046,0.006 -0.062,0.018c-0.016,0.012 -0.024,0.028 -0.024,0.047c0,0.013 0.004,0.024 0.012,0.033c0.008,0.009 0.019,0.016 0.032,0.023c0.013,0.006 0.027,0.011 0.044,0.016c0.016,0.005 0.032,0.01 0.048,0.015c0.064,0.021 0.111,0.05 0.141,0.085c0.029,0.036 0.044,0.083 0.044,0.14c0,0.039 -0.006,0.074 -0.019,0.105c-0.013,0.031 -0.032,0.058 -0.057,0.08c-0.025,0.023 -0.056,0.04 -0.092,0.052c-0.037,0.013 -0.078,0.019 -0.124,0.019c-0.095,0 -0.184,-0.028 -0.265,-0.085l0.084,-0.158c0.029,0.026 0.058,0.045 0.087,0.058c0.029,0.013 0.057,0.019 0.085,0.019c0.032,0 0.056,-0.007 0.072,-0.022c0.015,-0.015 0.023,-0.031 0.023,-0.05c0,-0.011 -0.002,-0.021 -0.006,-0.03c-0.004,-0.008 -0.011,-0.016 -0.02,-0.023c-0.009,-0.007 -0.021,-0.013 -0.036,-0.019c-0.015,-0.006 -0.034,-0.013 -0.055,-0.02c-0.025,-0.008 -0.05,-0.017 -0.074,-0.027c-0.025,-0.009 -0.046,-0.022 -0.065,-0.038c-0.019,-0.016 -0.035,-0.036 -0.046,-0.061c-0.012,-0.024 -0.018,-0.055 -0.018,-0.092c0,-0.037 0.006,-0.071 0.019,-0.102c0.012,-0.03 0.029,-0.056 0.052,-0.078c0.022,-0.021 0.049,-0.038 0.082,-0.05c0.032,-0.012 0.068,-0.018 0.108,-0.018c0.037,0 0.076,0.005 0.117,0.015c0.041,0.011 0.08,0.026 0.117,0.046l-0.078,0.153Z" style="fill-rule:nonzero;"/></g><g transform="matrix(83.3333,0,0,83.3333,1675.71,1848.57)"><path d="M0.647,-0.713l0,0.134c-0.065,-0.055 -0.133,-0.082 -0.204,-0.082c-0.077,0 -0.142,0.028 -0.195,0.083c-0.054,0.056 -0.081,0.123 -0.081,0.203c0,0.08 0.027,0.146 0.081,0.201c0.053,0.054 0.118,0.081 0.196,0.081c0.04,0 0.074,-0.006 0.102,-0.019c0.016,-0.007 0.032,-0.016 0.048,-0.027c0.017,-0.011 0.035,-0.024 0.053,-0.04l0,0.137c-0.065,0.037 -0.133,0.056 -0.205,0.056c-0.107,0 -0.199,-0.038 -0.275,-0.113c-0.076,-0.076 -0.114,-0.167 -0.114,-0.275c0,-0.096 0.031,-0.181 0.095,-0.256c0.078,-0.092 0.179,-0.139 0.303,-0.139c0.068,0 0.133,0.019 0.196,0.056Z" style="fill-rule:nonzero;"/></g><g transform="matrix(83.3333,0,0,83.3333,1735.6,1848.57)"><path d="M0.533,-0.183l-0.323,0l-0.084,0.183l-0.122,0l0.373,-0.801l0.36,0.801l-0.125,0l-0.079,-0.183Zm-0.046,-0.107l-0.112,-0.256l-0.117,0.256l0.229,0Z" style="fill-rule:nonzero;"/></g><g transform="matrix(83.3333,0,0,83.3333,1797.33,1848.57)"><path d="M0.064,0l0.159,-0.811l0.258,0.586l0.269,-0.586l0.142,0.811l-0.117,0l-0.072,-0.455l-0.224,0.49l-0.216,-0.491l-0.081,0.456l-0.118,0Z" style="fill-rule:nonzero;"/></g><g transform="matrix(83.3333,0,0,83.3333,1877.45,1848.57)"><path d="M0.204,-0.306l0,0.306l-0.114,0l0,-0.754l0.129,0c0.063,0 0.111,0.004 0.143,0.013c0.033,0.009 0.062,0.026 0.086,0.05c0.044,0.042 0.065,0.096 0.065,0.16c0,0.069 -0.023,0.124 -0.069,0.164c-0.046,0.041 -0.109,0.061 -0.187,0.061l-0.053,0Zm0,-0.106l0.043,0c0.104,0 0.156,-0.04 0.156,-0.12c0,-0.078 -0.054,-0.117 -0.161,-0.117l-0.038,0l0,0.237Z" style="fill-rule:nonzero;"/></g></g><path d="M204.498,6.961l1.27,0.001l1.27,0.001l1.271,0.002l1.27,0.002l1.271,0.003l1.271,0.003l1.271,0.004l1.271,0.004l1.271,0.005l1.271,0.005l1.272,0.006l1.272,0.006l1.272,0.007l1.272,0.008l1.272,0.008l1.273,0.009l1.273,0.009l1.272,0.011l1.274,0.01l1.273,0.012l1.274,0.012l1.273,0.012l1.274,0.014l1.275,0.014l0.728,0.008l0.546,0.006l1.275,0.016l0.637,0.008l0.638,0.008l0.637,0.009l0.638,0.008l0.638,0.009l0.637,0.009l0.638,0.009l0.638,0.009l0.638,0.01l0.638,0.009l0.638,0.01l0.638,0.01l0.638,0.011l0.638,0.01l0.639,0.011l0.638,0.011l0.639,0.011l0.638,0.011l0.639,0.011l0.638,0.012l0.639,0.012l0.639,0.012l0.755,0.015l0.755,0.015l0.754,0.015l0.754,0.016l0.754,0.016l0.754,0.017l0.753,0.017l0.753,0.017l0.752,0.018l0.753,0.018l0.752,0.018l0.752,0.019l0.751,0.019l0.752,0.019l0.751,0.02l0.751,0.02l0.751,0.02l0.751,0.02l0.75,0.021l0.751,0.02l0.75,0.021l0.75,0.022l0.75,0.021l0.75,0.022l1.499,0.043l1.499,0.044l1.499,0.045l1.499,0.045l1.498,0.046l1.499,0.045l2.997,0.091l1.499,0.046l1.499,0.046l1.5,0.045l1.5,0.045l1.5,0.044l1.502,0.044l1.502,0.043l0.751,0.022l0.751,0.021l0.752,0.021l0.752,0.021l0.752,0.02l0.752,0.021l0.753,0.02l0.753,0.019l0.753,0.02l0.753,0.019l0.309,0.008l0.357,0.01l0.401,0.012l0.443,0.013l0.996,0.029l0.545,0.016l0.573,0.017l0.595,0.017l0.616,0.017l0.631,0.017l0.644,0.018l0.653,0.016l0.328,0.009l0.33,0.008l0.33,0.008l0.33,0.007l0.329,0.008l0.329,0.007l0.327,0.007l0.325,0.007l0.323,0.006l0.32,0.006l0.317,0.005l0.314,0.006l0.309,0.004l0.305,0.005l0.3,0.003l0.294,0.004l0.288,0.003l0.282,0.002l0.276,0.002l0.268,0.001l0.26,0l0.252,0l0.244,-0.001l0.118,0l0.116,-0.001l0.113,-0.001l0.111,-0.001l0.109,-0.002l0.106,-0.001l0.103,-0.002l0.101,-0.002l0.098,-0.002l0.095,-0.002l0.092,-0.003l0.047,-0.001l0.043,-0.002l0.086,-0.003l0.083,-0.003l0.08,-0.003l0.077,-0.004l0.073,-0.003l0.071,-0.004l0.066,-0.004l0.063,-0.005l0.06,-0.004l0.056,-0.005l0.051,-0.005l0.048,-0.005l0.044,-0.005l0.02,-0.003l0.019,-0.003l0.018,-0.002l0.017,-0.003l0.015,-0.002l0.014,-0.003l0.013,-0.003l0.011,-0.002l0.009,-0.002l0.011,-0.003l0.361,0.215l-0.215,0.361l-0.017,0.004l-0.021,0.005l-0.02,0.004l-0.021,0.004l-0.022,0.004l-0.022,0.004l-0.023,0.003l-0.023,0.004l-0.025,0.003l-0.025,0.004l-0.051,0.006l-0.055,0.006l-0.058,0.005l-0.061,0.005l-0.064,0.005l-0.068,0.005l-0.07,0.004l-0.074,0.005l-0.076,0.004l-0.08,0.003l-0.082,0.004l-0.086,0.003l-0.088,0.003l-0.044,0.001l-0.047,0.002l-0.094,0.002l-0.097,0.003l-0.1,0.002l-0.102,0.002l-0.105,0.002l-0.107,0.001l-0.11,0.002l-0.112,0.001l-0.114,0.001l-0.117,0.001l-0.12,0.001l-0.245,0l-0.253,0.001l-0.262,-0.001l-0.269,-0.001l-0.277,-0.001l-0.283,-0.003l-0.289,-0.002l-0.295,-0.004l-0.301,-0.003l-0.306,-0.005l-0.31,-0.004l-0.314,-0.005l-0.317,-0.006l-0.321,-0.006l-0.324,-0.006l-0.326,-0.006l-0.327,-0.007l-0.329,-0.007l-0.33,-0.008l-0.33,-0.007l-0.331,-0.008l-0.329,-0.008l-0.329,-0.008l-0.654,-0.017l-0.644,-0.017l-0.632,-0.017l-0.616,-0.017l-0.595,-0.017l-0.573,-0.017l-0.545,-0.015l-0.996,-0.029l-0.443,-0.013l-0.401,-0.012l-0.356,-0.009l-0.308,-0.008l-0.754,-0.019l-0.753,-0.02l-0.753,-0.019l-0.753,-0.02l-0.752,-0.02l-0.753,-0.021l-0.752,-0.02l-0.752,-0.021l-0.751,-0.021l-0.752,-0.021l-1.502,-0.043l-1.501,-0.043l-1.501,-0.044l-1.5,-0.045l-1.5,-0.044l-1.499,-0.045l-1.499,-0.045l-2.997,-0.091l-1.499,-0.045l-1.498,-0.045l-1.499,-0.044l-1.498,-0.044l-1.499,-0.044l-1.499,-0.043l-0.75,-0.022l-0.75,-0.021l-0.75,-0.021l-0.75,-0.02l-0.75,-0.021l-0.751,-0.02l-0.75,-0.02l-0.751,-0.02l-0.751,-0.02l-0.751,-0.019l-0.751,-0.019l-0.751,-0.019l-0.752,-0.018l-0.752,-0.018l-0.752,-0.018l-0.753,-0.017l-0.752,-0.018l-0.753,-0.016l-0.753,-0.017l-0.754,-0.016l-0.753,-0.015l-0.755,-0.015l-0.754,-0.015l-0.755,-0.014l-0.638,-0.012l-0.639,-0.012l-0.638,-0.011l-0.639,-0.012l-0.638,-0.011l-0.638,-0.01l-0.638,-0.011l-0.639,-0.01l-0.638,-0.011l-0.638,-0.01l-0.638,-0.01l-0.638,-0.009l-0.637,-0.01l-0.638,-0.009l-0.638,-0.009l-0.637,-0.009l-0.638,-0.009l-0.637,-0.008l-0.638,-0.008l-0.637,-0.009l-0.638,-0.008l-0.637,-0.007l-1.274,-0.015l-0.547,-0.006l-0.727,-0.009l-1.274,-0.013l-1.274,-0.013l-1.273,-0.013l-1.274,-0.011l-1.273,-0.011l-1.272,-0.011l-1.273,-0.009l-1.273,-0.009l-1.272,-0.009l-1.272,-0.007l-1.272,-0.008l-1.271,-0.006l-1.272,-0.006l-1.271,-0.006l-1.271,-0.005l-1.271,-0.004l-1.271,-0.004l-1.271,-0.003l-1.27,-0.003l-1.271,-0.002l-1.27,-0.002l-1.27,-0.002l-1.27,0l-1.27,-0.001l-1.27,0l-1.269,0.001l-1.27,0.001l-1.269,0.001l-1.269,0.002l-1.269,0.002l-1.269,0.003l-1.269,0.003l-1.269,0.003l-0.55,0.002l-0.719,0.002l-1.269,0.004l-1.268,0.005l-1.269,0.004l-1.268,0.005l-1.268,0.006l-1.269,0.005l-1.268,0.006l-1.268,0.007l-1.268,0.006l-1.268,0.007l-1.268,0.007l-1.268,0.008l-1.268,0.007l-1.268,0.008l-1.268,0.008l-1.268,0.008l-1.268,0.009l-1.267,0.008l-1.268,0.009l-2.536,0.018l-2.535,0.019l-2.536,0.019l-2.535,0.019l-0.075,0.001l-2.461,0.019l-2.536,0.019l-2.536,0.02l-5.073,0.04l-5.073,0.04l-2.067,0.016l-0.471,0.003l-2.537,0.019l-2.539,0.018l-2.538,0.018l-2.539,0.018l-2.539,0.017l-1.27,0.008l-1.27,0.008l-1.27,0.008l-1.271,0.008l-1.27,0.007l-1.271,0.007l-1.271,0.007l-0.497,0.003l-0.774,0.004l-1.271,0.006l-1.271,0.007l-1.271,0.005l-1.272,0.006l-1.272,0.005l-1.272,0.005l-1.272,0.005l-1.272,0.004l-1.273,0.004l-1.272,0.004l-1.273,0.004l-1.274,0.003l-1.273,0.002l-1.273,0.003l-1.274,0.001l-1.274,0.002l-1.274,0.001l-1.275,0.001l-1.275,0l-1.275,0l-0.3,-0.301l0.3,-0.3l1.275,0l1.275,-0.001l1.274,-0.002l1.274,-0.002l1.274,-0.002l1.273,-0.003l1.274,-0.003l1.273,-0.004l1.273,-0.004l1.273,-0.004l1.272,-0.005l1.273,-0.005l1.272,-0.005l1.272,-0.006l1.272,-0.006l1.271,-0.006l1.272,-0.006l1.271,-0.007l1.271,-0.007l1.271,-0.008l0.774,-0.004l0.497,-0.003l1.27,-0.008l1.271,-0.008l1.27,-0.008l1.271,-0.009l1.27,-0.009l1.27,-0.008l1.269,-0.009l2.54,-0.019l2.538,-0.019l2.539,-0.02l2.538,-0.02l2.537,-0.021l0.471,-0.003l2.066,-0.017l5.074,-0.041l5.073,-0.042l2.536,-0.02l2.536,-0.021l2.461,-0.019l0.075,-0.001l2.535,-0.019l2.536,-0.019l2.536,-0.018l2.535,-0.018l1.268,-0.008l1.268,-0.009l1.268,-0.008l1.268,-0.008l1.268,-0.008l1.268,-0.007l1.268,-0.007l1.268,-0.008l1.268,-0.006l1.269,-0.007l1.268,-0.006l1.268,-0.006l1.268,-0.006l1.269,-0.006l1.268,-0.005l1.269,-0.004l1.269,-0.005l1.268,-0.004l1.269,-0.004l0.72,-0.002l0.549,-0.001l1.269,-0.003l1.269,-0.003l1.269,-0.002l1.27,-0.002l1.269,-0.001l1.27,-0.002l1.269,0l1.27,0l1.27,0Z"/><path d="M315.703,36.067l0.02,0.001l0.019,0.001l0.02,0.002l0.023,0.003l0.027,0.005l0.036,0.009l0.044,0.017l0.043,0.023l0.048,0.035l0.024,0.025l0.031,0.037l0.025,0.041l0,0.001l0.024,0.057l0.013,0.06l0,0.001l0.004,0.042l-0.002,0.042l-0.007,0.041l0,0.001l-0.015,0.05l-0.022,0.047l-0.019,0.034l-0.043,0.048l-0.036,0.03l-0.032,0.022l-0.035,0.019l-0.03,0.012l-0.024,0.009l-0.02,0.006l-0.018,0.006l-0.018,0.004l-0.018,0.005l-0.019,0.004l-0.037,0.008l-0.04,0.007l-0.044,0.008l-0.048,0.008l-0.052,0.008l-0.056,0.008l-0.06,0.008l-0.064,0.008l-0.068,0.009l-0.071,0.008l-0.076,0.008l-0.079,0.009l-0.083,0.008l-0.087,0.008l-0.089,0.008l-0.094,0.008l-0.096,0.008l-0.1,0.007l-0.103,0.007l-0.106,0.007l-0.398,0.025l-0.03,0.002l-0.369,0.015l-0.399,0.014l-0.399,0.014l-0.399,0.014l-0.2,0.006l-0.2,0.006l-0.199,0.006l-0.2,0.006l-0.2,0.006l-0.199,0.005l-0.2,0.005l-0.2,0.006l-0.2,0.004l-0.2,0.005l-0.2,0.005l-0.199,0.004l-0.2,0.004l-0.2,0.004l-0.2,0.004l-0.2,0.004l-0.2,0.003l-0.2,0.003l-0.2,0.003l-0.2,0.003l-0.2,0.003l-0.2,0.002l-0.315,0.003l-0.104,0.001l-0.211,0.002l-0.316,0.002l-0.315,0.002l-0.315,0.002l-0.315,0.001l-0.315,0.001l-0.315,0l-0.315,0.001l-0.315,0l-0.315,0l-0.315,0l-0.63,-0.001l-0.63,-0.001l-0.63,-0.002l-0.63,-0.002l-1.259,-0.004l-0.629,-0.002l-0.63,-0.001l-0.629,-0.001l-0.629,-0.001l-1.34,0l-1.339,0.001l-1.34,0l-1.34,0.001l-1.339,0.002l-1.34,0.001l-2.68,0.004l-2.679,0.003l-2.68,0.003l-1.34,0.002l-1.34,0.001l-1.34,0.001l-1.34,0.001l-1.34,0.001l-1.34,0l-1.34,-0.001l-1.34,0l-1.34,-0.001l-0.853,-0.001l-0.487,-0.001l-1.34,-0.003l-1.34,-0.003l-1.34,-0.003l-0.67,-0.002l-0.67,-0.003l-0.67,-0.002l-0.67,-0.003l-0.67,-0.003l-0.67,-0.003l-0.67,-0.003l-0.67,-0.004l-0.67,-0.004l-0.67,-0.004l-0.67,-0.004l-0.67,-0.004l-0.67,-0.005l-0.67,-0.005l-0.954,-0.007l-0.954,-0.009l-0.953,-0.008l-0.954,-0.01l-0.953,-0.009l-0.954,-0.011l-0.953,-0.011l-0.952,-0.011l-0.953,-0.012l-0.953,-0.013l-0.952,-0.013l-0.504,-0.007l-0.448,-0.006l-0.952,-0.015l-0.952,-0.014l-0.952,-0.015l-0.951,-0.015l-0.952,-0.016l-0.951,-0.017l-0.951,-0.016l-0.951,-0.017l-0.951,-0.018l-0.951,-0.017l-0.951,-0.018l-0.95,-0.019l-0.951,-0.018l-0.95,-0.019l-0.95,-0.02l-0.95,-0.019l-0.95,-0.02l-0.95,-0.02l-0.95,-0.02l-0.949,-0.021l-0.95,-0.021l-0.949,-0.021l-0.95,-0.021l-0.949,-0.021l-0.003,0l-1.895,-0.044l-1.899,-0.044l-1.897,-0.045l-1.898,-0.045l-1.897,-0.045l-1.897,-0.045l-3.794,-0.091l-1.897,-0.045l-1.896,-0.045l-1.897,-0.045l-1.896,-0.044l-1.896,-0.043l-0.949,-0.022l-0.948,-0.021l-0.948,-0.021l-0.948,-0.021l-0.948,-0.021l-0.949,-0.021l-0.948,-0.02l-0.948,-0.02l-0.949,-0.02l-0.948,-0.019l-0.948,-0.019l-0.949,-0.019l-0.948,-0.019l-0.949,-0.018l-0.948,-0.018l-0.949,-0.018l-0.948,-0.017l-0.949,-0.017l-0.949,-0.016l-0.949,-0.016l-0.948,-0.016l-0.949,-0.015l-0.919,-0.014l-0.03,-0.001l-0.949,-0.014l-0.95,-0.014l-0.949,-0.014l-0.949,-0.013l-0.949,-0.012l-0.95,-0.012l-0.949,-0.012l-0.95,-0.011l-0.95,-0.01l-0.95,-0.01l-0.95,-0.009l-0.95,-0.009l-0.95,-0.008l-0.95,-0.008l-0.951,-0.006l-0.95,-0.007l-0.951,-0.005l-0.951,-0.005l-0.951,-0.004l-0.951,-0.004l-0.951,-0.002l-0.475,-0.001l-0.476,-0.001l-0.476,-0.001l-0.476,-0.001l-0.352,0l-0.123,0l-0.476,0l-0.476,0l-0.476,0l-0.476,0l-0.476,0l-0.476,0.001l-0.476,0.001l-0.476,0.001l-0.476,0.001l-0.476,0.002l-0.476,0.001l-0.477,0.002l-0.476,0.002l-0.476,0.003l-0.477,0.002l-0.476,0.003l-0.477,0.003l-0.476,0.003l-0.477,0.003l-0.476,0.004l-0.477,0.004l-0.477,0.004l-0.476,0.004l-0.477,0.004l-0.477,0.005l-0.477,0.005l-0.477,0.005l-0.477,0.005l-0.477,0.006l-0.477,0.006l-0.477,0.006l-0.477,0.006l-0.477,0.007l-0.477,0.006l-0.478,0.007l-0.477,0.008l-0.478,0.007l-0.477,0.008l-0.478,0.008l-0.06,0.001l-0.412,0.007l-0.473,0.008l-0.472,0.009l-0.473,0.008l-0.472,0.009l-0.473,0.01l-0.472,0.009l-0.473,0.01l-0.472,0.01l-0.473,0.01l-0.472,0.011l-0.472,0.01l-0.473,0.011l-0.472,0.011l-0.945,0.023l-0.944,0.023l-0.945,0.024l-0.944,0.025l-0.393,0.01l-0.551,0.014l-0.945,0.025l-0.944,0.026l-0.944,0.026l-0.944,0.026l-1.888,0.052l-1.888,0.053l-0.944,0.026l-0.944,0.026l-0.944,0.026l-0.944,0.026l-0.944,0.025l-0.563,0.015l-0.381,0.01l-0.944,0.024l-0.944,0.024l-0.945,0.023l-0.472,0.012l-0.472,0.011l-0.472,0.011l-0.472,0.011l-0.472,0.01l-0.472,0.011l-0.336,0.007l-0.336,0.007l-0.336,0.006l-0.336,0.005l-0.336,0.006l-0.336,0.004l-0.336,0.005l-0.336,0.004l-0.336,0.004l-0.337,0.004l-0.672,0.007l-0.671,0.006l-0.672,0.007l-0.672,0.006l-0.672,0.007l-0.335,0.003l-0.336,0.004l-0.336,0.004l-0.335,0.004l-0.336,0.005l-0.335,0.004l-0.336,0.006l-0.335,0.005l-0.335,0.006l-0.335,0.007l-0.336,0.007l-0.334,0.007l-0.083,0.002l-0.092,0.003l-0.1,0.004l-0.107,0.004l-0.113,0.005l-0.119,0.005l-0.123,0.006l-0.126,0.006l-0.129,0.007l-0.13,0.007l-0.131,0.007l-0.131,0.007l-0.257,0.015l-0.244,0.014l-0.225,0.014l-0.102,0.007l-0.094,0.006l-0.047,0.004l-0.039,0.003l-0.076,0.006l-0.032,0.003l-0.021,0.022l-0.071,0.001l-0.054,0.001l-0.023,0l-0.02,-0.001l-0.023,-0.001l-0.037,-0.004l-0.023,-0.006l-0.038,-0.013l-0.035,-0.019l-0.001,0l-0.033,-0.024l-0.029,-0.029l-0.025,-0.032l-0.02,-0.036l0,0l-0.015,-0.041l-0.009,-0.042l-0.002,-0.043l0.005,-0.043l0.012,-0.042l0.017,-0.04l0.024,-0.036l0.029,-0.032l0,-0.001l0.029,-0.024l0.033,-0.02l0.035,-0.016l0.02,-0.007l0.033,-0.007l0.022,-0.003l0.019,-0.003l0.02,-0.002l0.046,-0.004l0.057,-0.004l0.068,-0.004l0.078,-0.005l0.04,-0.003l0.047,-0.003l0.096,-0.007l0.104,-0.007l0.226,-0.014l0.245,-0.016l0.258,-0.015l0.132,-0.007l0.132,-0.008l0.131,-0.007l0.13,-0.006l0.127,-0.007l0.124,-0.006l0.12,-0.006l0.115,-0.005l0.109,-0.004l0.102,-0.004l0.094,-0.003l0.086,-0.003l0.336,-0.008l0.336,-0.008l0.336,-0.007l0.336,-0.006l0.336,-0.007l0.336,-0.006l0.336,-0.005l0.336,-0.005l0.336,-0.005l0.336,-0.005l0.336,-0.004l0.336,-0.004l0.672,-0.009l0.672,-0.007l0.672,-0.008l0.671,-0.008l0.672,-0.008l0.335,-0.005l0.336,-0.005l0.335,-0.005l0.336,-0.005l0.335,-0.006l0.336,-0.006l0.335,-0.006l0.335,-0.007l0.335,-0.007l0.336,-0.008l0.471,-0.012l0.472,-0.012l0.472,-0.012l0.472,-0.012l0.472,-0.012l0.471,-0.013l0.944,-0.025l0.944,-0.027l0.943,-0.027l0.381,-0.011l0.563,-0.016l0.944,-0.028l0.943,-0.028l0.944,-0.029l0.944,-0.028l0.944,-0.029l1.888,-0.058l1.888,-0.059l0.944,-0.029l0.944,-0.028l0.945,-0.029l0.944,-0.028l0.551,-0.016l0.393,-0.012l0.945,-0.027l0.945,-0.026l0.945,-0.026l0.945,-0.025l0.472,-0.013l0.473,-0.012l0.472,-0.012l0.473,-0.011l0.473,-0.012l0.473,-0.011l0.472,-0.011l0.473,-0.011l0.473,-0.011l0.473,-0.01l0.473,-0.01l0.473,-0.01l0.473,-0.01l0.412,-0.008l0.061,-0.001l0.477,-0.009l0.478,-0.008l0.478,-0.009l0.478,-0.008l0.477,-0.008l0.478,-0.007l0.477,-0.008l0.478,-0.007l0.477,-0.007l0.478,-0.006l0.477,-0.007l0.477,-0.006l0.477,-0.006l0.478,-0.006l0.477,-0.005l0.477,-0.006l0.477,-0.005l0.477,-0.004l0.477,-0.005l0.477,-0.005l0.477,-0.004l0.476,-0.004l0.477,-0.003l0.477,-0.004l0.477,-0.003l0.476,-0.004l0.477,-0.003l0.476,-0.002l0.477,-0.003l0.476,-0.002l0.477,-0.002l0.476,-0.002l0.476,-0.002l0.477,-0.001l0.476,-0.002l0.476,-0.001l0.476,-0.001l0.476,-0.001l0.477,0l0.123,0l0.353,-0.001l0.476,0l0.476,0l0.476,0l0.476,0.001l0.951,0.001l0.952,0.002l0.951,0.003l0.951,0.004l0.952,0.004l0.951,0.004l0.951,0.006l0.95,0.006l0.951,0.006l0.95,0.008l0.951,0.007l0.95,0.009l0.95,0.009l0.951,0.009l0.949,0.01l0.95,0.011l0.95,0.011l0.95,0.012l0.949,0.012l0.95,0.012l0.949,0.013l0.031,0.001l0.919,0.013l0.949,0.014l0.949,0.014l0.949,0.015l0.949,0.016l0.949,0.015l0.949,0.016l0.949,0.017l0.949,0.017l0.949,0.017l0.949,0.017l0.948,0.018l0.949,0.018l0.948,0.019l0.949,0.018l0.949,0.019l0.948,0.019l0.948,0.02l0.949,0.019l0.948,0.02l0.949,0.02l0.948,0.02l0.948,0.021l1.897,0.041l1.897,0.042l1.896,0.042l1.897,0.043l1.897,0.042l3.794,0.086l1.897,0.043l1.897,0.043l1.898,0.043l1.897,0.042l1.898,0.042l1.896,0.041l0.951,0.02l0.95,0.021l0.949,0.02l0.949,0.02l0.95,0.02l0.95,0.02l0.949,0.019l0.95,0.019l0.95,0.019l0.95,0.019l0.95,0.018l0.95,0.018l0.95,0.018l0.951,0.017l0.95,0.017l0.951,0.017l0.95,0.016l0.951,0.016l0.951,0.015l0.951,0.016l0.952,0.014l0.951,0.015l0.952,0.013l0.951,0.014l0.449,0.006l0.503,0.007l0.952,0.013l0.952,0.012l0.952,0.011l0.953,0.011l0.952,0.011l0.953,0.01l0.953,0.01l0.953,0.009l0.953,0.008l0.954,0.008l0.953,0.007l0.67,0.005l0.67,0.004l0.669,0.004l0.67,0.004l0.67,0.004l0.669,0.003l0.67,0.004l0.67,0.003l0.669,0.003l0.67,0.002l0.67,0.003l0.67,0.002l0.669,0.002l0.67,0.002l1.34,0.003l1.339,0.003l1.34,0.002l0.487,0l0.853,0.001l1.339,0.001l1.34,0l1.34,0l1.34,0l1.339,-0.001l1.34,-0.001l1.34,-0.001l1.34,-0.001l1.34,-0.002l2.68,-0.004l2.679,-0.004l2.68,-0.003l1.34,-0.002l1.34,-0.002l1.34,-0.001l1.339,-0.001l1.34,0l1.34,-0.001l0.63,0.001l0.63,0.001l0.63,0.001l0.63,0.002l1.259,0.004l0.629,0.001l0.63,0.002l0.629,0.001l0.629,0.001l0.315,0l0.314,0l0.315,0l0.314,-0.001l0.315,0l0.314,-0.001l0.315,-0.002l0.314,-0.001l0.314,-0.002l0.315,-0.002l0.21,-0.002l0.104,0l0.314,-0.003l0.199,-0.001l0.199,-0.002l0.2,-0.002l0.199,-0.002l0.199,-0.003l0.199,-0.002l0.199,-0.003l0.199,-0.003l0.2,-0.004l0.199,-0.003l0.199,-0.004l0.199,-0.003l0.199,-0.004l0.199,-0.004l0.199,-0.005l0.199,-0.004l0.199,-0.005l0.199,-0.005l0.199,-0.005l0.199,-0.005l0.199,-0.006l0.199,-0.005l0.398,-0.012l0.398,-0.013l0.397,-0.013l0.368,-0.013l0.03,0l0.397,-0.006l0.103,-0.001l0.099,-0.003l0.096,-0.002l0.093,-0.004l0.09,-0.003l0.086,-0.004l0.083,-0.004l0.079,-0.004l0.076,-0.005l0.071,-0.004l0.068,-0.005l0.063,-0.005l0.059,-0.005l0.055,-0.005l0.05,-0.005l0.045,-0.005l0.005,-0.001l0.139,-0.058l0.002,0l0.039,-0.001l0.021,0.001l0.019,0Zm-0.03,0.707l0.011,0.001l-0.005,-0.001l-0.007,0l0.007,0l-0.009,-0.001l0.003,0.001Z"/></svg>